<?xml version="1.0" encoding="utf-8"?>
<!-- Generator: Adobe Illustrator 16.0.0, SVG Export Plug-In . SVG Version: 6.00 Build 0)  -->
<!DOCTYPE svg PUBLIC "-//W3C//DTD SVG 1.1//EN" "http://www.w3.org/Graphics/SVG/1.1/DTD/svg11.dtd">
<svg version="1.1" xmlns="http://www.w3.org/2000/svg" xmlns:xlink="http://www.w3.org/1999/xlink" x="0px" y="0px"
	 width="356.982px" height="440.978px" viewBox="0 0 356.982 440.978" enable-background="new 0 0 356.982 440.978"
	 xml:space="preserve">
<g id="Layer_4">
	<g>
		<ellipse fill="#8F83BE" cx="239.648" cy="13.629" rx="11.82" ry="10.294"/>
		<ellipse fill="#8F83BE" cx="271.676" cy="27.736" rx="11.82" ry="10.294"/>
		<ellipse fill="#8F83BE" cx="228.971" cy="32.311" rx="11.82" ry="10.296"/>
		<path fill="#8F83BE" d="M228.21,34.975c0,3.793,3.075,6.869,6.869,6.869h32.016c3.795,0,6.869-3.075,6.869-6.869v-3.801
			c0-3.793-3.074-6.869-6.869-6.869h-32.016c-3.794,0-6.869,3.076-6.869,6.869V34.975z"/>
		<ellipse fill="#8F83BE" cx="264.813" cy="16.678" rx="9.15" ry="7.626"/>
		<ellipse fill="#8F83BE" cx="230.879" cy="24.495" rx="10.295" ry="9.723"/>
		<circle fill="#8F83BE" cx="248.421" cy="28.496" r="20.968"/>
	</g>
</g>
<g id="Layer_1">
</g>
<g id="Layer_2">
</g>
<g id="Layer_3">
	<circle fill="none" stroke="#35BFC2" stroke-width="5" stroke-miterlimit="10" cx="146.123" cy="210.373" r="1.18"/>
	<g>
		<circle fill="#181125" cx="176.991" cy="138.723" r="125.868"/>
		<circle opacity="0.5" fill="#6B5DA8" cx="176.991" cy="138.723" r="87.25"/>
		<circle opacity="0.5" fill="#6B5DA8" cx="176.991" cy="138.723" r="69.697"/>
		<circle fill="#35BFC2" stroke="#FFFFFF" stroke-width="4" stroke-miterlimit="10" cx="176.991" cy="138.723" r="52.145"/>
		<circle fill="none" stroke="#35BFC2" stroke-width="3" stroke-miterlimit="10" cx="102.493" cy="192.28" r="4.832"/>
		<circle fill="none" stroke="#35BFC2" stroke-width="3" stroke-miterlimit="10" cx="226.523" cy="77.514" r="6.042"/>
		<circle fill="none" stroke="#35BFC2" stroke-width="2" stroke-miterlimit="10" cx="139.54" cy="71.876" r="4.53"/>
		<circle fill="none" stroke="#35BFC2" stroke-width="2" stroke-miterlimit="10" cx="125.572" cy="85.97" r="1.888"/>
		<circle fill="none" stroke="#35BFC2" stroke-width="5" stroke-miterlimit="10" cx="92.454" cy="135.904" r="1.18"/>
		<circle fill="none" stroke="#35BFC2" stroke-width="5" stroke-miterlimit="10" cx="103.298" cy="103.314" r="1.18"/>
		<circle fill="none" stroke="#35BFC2" stroke-width="2" stroke-miterlimit="10" cx="177.824" cy="77.916" r="1.179"/>
		<circle fill="none" stroke="#35BFC2" stroke-width="5" stroke-miterlimit="10" cx="187.059" cy="51.77" r="1.18"/>
		<circle fill="none" stroke="#35BFC2" stroke-width="4" stroke-miterlimit="10" cx="110.172" cy="159.26" r="1.18"/>
	</g>
</g>
<g id="cloud5">
	<g>
		
			<ellipse transform="matrix(-0.9549 0.297 -0.297 -0.9549 337.1773 178.6918)" fill="#8F83BE" cx="155.012" cy="114.963" rx="11.438" ry="9.962"/>
		
			<ellipse transform="matrix(-0.9549 0.297 -0.297 -0.9549 340.0184 161.8724)" fill="#8F83BE" cx="157.711" cy="106.768" rx="11.438" ry="9.963"/>
		<path fill="#8F83BE" d="M134.193,119.252c-1.634-5.252,1.931-11.032,7.964-12.909c6.032-1.876,12.246,0.862,13.879,6.116
			c1.636,5.255-1.929,11.033-7.961,12.909C142.042,127.247,135.827,124.507,134.193,119.252z"/>
		
			<ellipse transform="matrix(-0.9549 0.2969 -0.2969 -0.9549 422.3243 163.8875)" fill="#8F83BE" cx="198.716" cy="114.016" rx="11.439" ry="9.961"/>
		<path fill="#8F83BE" d="M147.019,125.458c-1.633-5.252,1.933-11.033,7.963-12.909c6.032-1.877,12.248,0.861,13.883,6.113
			c1.633,5.255-1.932,11.036-7.966,12.912C154.869,133.45,148.654,130.713,147.019,125.458z"/>
		<path fill="#8F83BE" d="M156.471,119.819c-1.089-3.506,0.87-7.23,4.374-8.321l29.584-9.201c3.506-1.091,7.231,0.867,8.321,4.372
			l1.093,3.513c1.09,3.506-0.868,7.229-4.374,8.32l-29.584,9.202c-3.504,1.09-7.23-0.869-8.321-4.373L156.471,119.819z"/>
		
			<ellipse transform="matrix(-0.9549 0.297 -0.297 -0.9549 419.7612 188.6441)" fill="#8F83BE" cx="195.552" cy="126.205" rx="8.855" ry="7.379"/>
		<path fill="#8F83BE" d="M152.436,131.694c-1.542-4.959,1.465-10.309,6.719-11.944c5.254-1.633,10.765,1.066,12.308,6.026
			c1.543,4.962-1.465,10.309-6.718,11.944C159.49,139.356,153.98,136.656,152.436,131.694z"/>
		<path fill="#8F83BE" d="M157.666,123.179c-3.344-9.558,2.621-19.703,13.317-22.663c10.698-2.958,22.076,2.389,25.417,11.946
			c3.341,9.559-2.624,19.702-13.319,22.661C172.383,138.082,161.004,132.732,157.666,123.179z"/>
	</g>
</g>
<g id="cloud4">
	<g>
		
			<ellipse transform="matrix(0.9549 0.297 -0.297 0.9549 45.0783 -10.7829)" fill="#8F83BE" cx="58.024" cy="142.954" rx="11.439" ry="9.962"/>
		
			<ellipse transform="matrix(0.9549 0.297 -0.297 0.9549 42.5236 -10.3512)" fill="#8F83BE" cx="55.325" cy="134.759" rx="11.438" ry="9.963"/>
		
			<ellipse transform="matrix(0.9549 0.297 -0.297 0.9549 45.7869 -13.6815)" fill="#8F83BE" cx="67.92" cy="143.847" rx="11.438" ry="9.962"/>
		
			<ellipse transform="matrix(0.9549 0.297 -0.297 0.9549 42.8154 2.1536)" fill="#8F83BE" cx="14.319" cy="142.007" rx="11.439" ry="9.962"/>
		
			<ellipse transform="matrix(0.9549 0.297 -0.297 0.9549 47.0577 -9.5926)" fill="#8F83BE" cx="55.094" cy="150.052" rx="11.439" ry="9.962"/>
		<path fill="#8F83BE" d="M56.566,147.81c1.087-3.505-0.871-7.23-4.374-8.32l-29.585-9.201c-3.506-1.091-7.232,0.867-8.321,4.372
			l-1.094,3.514c-1.091,3.505,0.868,7.23,4.374,8.32l29.585,9.202c3.504,1.09,7.23-0.869,8.322-4.374L56.566,147.81z"/>
		
			<ellipse transform="matrix(0.9549 0.297 -0.297 0.9549 46.5851 1.7652)" fill="#8F83BE" cx="17.483" cy="154.196" rx="8.856" ry="7.379"/>
		
			<ellipse transform="matrix(0.9549 0.297 -0.297 0.9549 48.8513 -8.1006)" fill="#8F83BE" cx="51.086" cy="156.727" rx="9.962" ry="9.41"/>
		<path fill="#8F83BE" d="M55.371,151.169c3.342-9.557-2.623-19.703-13.318-22.662c-10.698-2.959-22.076,2.389-25.416,11.945
			c-3.341,9.559,2.623,19.704,13.319,22.662C40.654,166.072,52.031,160.724,55.371,151.169z"/>
	</g>
</g>
<g id="cloud3">
	<g>
		<path fill="#8F83BE" d="M265.916,133.356c-1.26-8.013,5.177-15.68,14.377-17.126c9.197-1.446,17.675,3.875,18.936,11.886
			c1.262,8.012-5.173,15.68-14.372,17.126C275.656,146.69,267.177,141.368,265.916,133.356z"/>
		
			<ellipse transform="matrix(-0.9879 0.1554 -0.1554 -0.9879 661.3385 155.8271)" fill="#8F83BE" cx="324.58" cy="103.756" rx="16.862" ry="14.685"/>
		
			<ellipse transform="matrix(-0.9879 0.1554 -0.1554 -0.9879 540.1677 171.3275)" fill="#8F83BE" cx="263.388" cy="106.774" rx="16.862" ry="14.685"/>
		<path fill="#8F83BE" d="M261.724,103.19c-0.84-5.346,2.813-10.361,8.154-11.202l45.119-7.097
			c5.347-0.84,10.362,2.811,11.203,8.157l0.842,5.357c0.843,5.347-2.81,10.361-8.156,11.203l-45.119,7.095
			c-5.345,0.84-10.36-2.81-11.201-8.157L261.724,103.19z"/>
		<path fill="#8F83BE" d="M304.464,122.888c-0.935-5.936,4.084-11.655,11.205-12.774c7.121-1.121,13.652,2.783,14.587,8.717
			c0.932,5.935-4.087,11.655-11.208,12.774C311.93,132.726,305.398,128.823,304.464,122.888z"/>
		
			<ellipse transform="matrix(-0.9879 0.1554 -0.1554 -0.9879 550.5981 191.6998)" fill="#8F83BE" cx="267.808" cy="117.367" rx="14.686" ry="13.87"/>
		<path fill="#8F83BE" d="M262.094,112.488c-2.569-16.319,8.582-31.628,24.9-34.196c16.318-2.566,31.627,8.581,34.191,24.901
			c2.57,16.318-8.579,31.628-24.897,34.195C279.97,139.955,264.661,128.807,262.094,112.488z"/>
	</g>
</g>
<g id="cloud2">
	<g>
		<ellipse fill="#8F83BE" cx="106.341" cy="33.016" rx="23.059" ry="20.084"/>
		<ellipse fill="#8F83BE" cx="43.859" cy="60.537" rx="23.059" ry="20.084"/>
		<ellipse fill="#8F83BE" cx="127.168" cy="69.463" rx="23.059" ry="20.084"/>
		<path fill="#8F83BE" d="M128.655,74.659c0,7.402-5.998,13.401-13.399,13.401H52.796c-7.401,0-13.4-5.999-13.4-13.401v-7.416
			c0-7.399,5.999-13.399,13.4-13.399h62.459c7.402,0,13.399,6,13.399,13.399V74.659z"/>
		<ellipse fill="#8F83BE" cx="57.248" cy="38.967" rx="17.852" ry="14.876"/>
		<ellipse fill="#8F83BE" cx="123.449" cy="54.216" rx="20.083" ry="18.967"/>
		<circle fill="#8F83BE" cx="89.227" cy="62.019" r="40.905"/>
	</g>
</g>
<g id="_x34_04">
	<g>
		<path fill="#181125" d="M126.731,418.103h-14.56v18.76H85.151v-18.76h-51.8v-18.061l43.96-61.18h28.7l-39.899,57.26h19.88v-16.659
			h26.18v16.659h14.56V418.103z"/>
		<path fill="#181125" d="M132.331,387.863c0-32.34,18.2-50.96,43.261-50.96c24.92,0,43.119,18.62,43.119,50.96
			s-18.199,50.96-43.119,50.96C150.531,438.823,132.331,420.203,132.331,387.863z M190.852,387.863
			c0-20.58-6.44-28.279-15.26-28.279c-8.96,0-15.4,7.699-15.4,28.279s6.44,28.28,15.4,28.28
			C184.411,416.143,190.852,408.443,190.852,387.863z"/>
		<path fill="#181125" d="M320.631,418.103h-14.56v18.76h-27.02v-18.76h-51.8v-18.061l43.96-61.18h28.699l-39.899,57.26h19.88
			v-16.659h26.18v16.659h14.56V418.103z"/>
	</g>
</g>
</svg>
